<?xml version="1.0" encoding="utf-8" ?><svg xmlns="http://www.w3.org/2000/svg" xmlns:xlink="http://www.w3.org/1999/xlink" width="512" height="512" viewBox="0 0 512 512"><path d="M184.344 67.6575L253.31 67.629C266.389 67.6066 265.801 73.0142 265.773 84.4668L265.75 154.75C304.601 154.562 333.801 164.837 361.08 193.256C405.976 240.028 404.174 315.671 356.935 360.138C331.382 384.192 302.232 394.273 267.31 393.297C263.362 392.672 259.351 392.46 255.413 391.804C182.3 379.62 138.704 303.785 163.867 234.375C158.891 234.286 153.769 234.431 148.769 234.409L84.0182 234.391C77.0378 234.409 66.506 235.421 66.5661 224.868L66.6313 94.6566C66.5376 72.9071 61.8314 67.6114 86.6481 67.6567L184.344 67.6575ZM185.325 234.375C174.479 262.267 172.055 286.685 184.896 315.28C203.072 355.756 240.893 376.019 284.311 373.751C290.44 372.585 295.903 371.799 301.949 370.142C350.806 356.754 382.566 305.953 372.773 256.106C362.774 205.21 317.35 170.787 265.75 173.747L265.759 208.248C265.761 219.676 268.278 234.693 251.686 234.495L185.325 234.375ZM85.9987 182.192C109.06 157.356 130.868 131.144 154.001 106.554C159.26 101.837 164.148 91.5563 172.095 100.05C183.949 112.718 195.038 126.27 206.693 139.101L246.753 183.751L246.753 86.3601L102.804 86.3515C98.5994 86.3497 89.9059 86.0742 85.9987 86.3601L85.9966 151.085C85.9988 160.326 86.5536 173.404 85.9987 182.192Z"/><path d="M312.027 80.8093C316.5 79.9928 339.326 88.6386 344.491 90.8317C400.444 114.592 439.837 168.904 445.831 229.292C446.904 240.1 446.505 251.69 446.504 262.594L446.494 433.119C446.473 440.367 441.031 443.816 434.122 443.85L261.22 443.881C249.059 443.88 236.793 444.163 224.682 442.841C162.992 436.107 108.285 393.524 87.7621 334.685C86.1278 329.935 83.8874 323.058 83.5168 318.098C82.8199 308.769 98.1034 302.38 103.145 319.818C116.03 368.427 157.752 407.238 205.963 419.984C225.936 425.327 242.263 424.631 262.625 424.629L426.756 424.629L426.762 265.883C426.762 242.336 427.778 225.179 420.542 202.145C405.63 154.675 369.381 118.056 322.043 102.703C317.679 101.287 312.666 100.57 308.569 98.5938C300.393 94.6502 302.374 82.8871 312.027 80.8093Z"/></svg>